<svg xmlns="http://www.w3.org/2000/svg" version="1.1" xmlns:xlink="http://www.w3.org/1999/xlink" width="3840" height="336">
    <g stroke="#e6eef0" fill="#e6eef0" stroke-width="1">
        <rect y="161" width="3840" height="175" fill="#e6eef0"/>
        <path d="M0 147 L105 161 l-105 0 "/>
        <path d="M105 161  l74 -32 l21 15 l0 17 "/>
        <path d="M200 144  l67 -65 l49 28 l0 60 L200 160"/>
        <path d="M316 107 l87 -54 l48 25 l0 85 L316 161" />
        <!-- here -->
        <path d="M451 78 l42 -32 l138 96 l57 -34 l124 68 l55 -22 l57 21 l0 100 l-500 0 " />
        <path d="M922 175 l396 -26 l0 50 " />
        <!-- polygon -->
        <polygon points="1318,148 1363,119 1407,146 1528,64 1577,95 1716,1 1785,87 1818,62 1933,136 1965,112 2055,144 2187,110 2222,124 2278,96 2432,164 2505,174 1318,174" />
        <polygon points="2810,174 3016,150 3108,156 3159,157 3203,131 3244,137 3294,107 3333,113 3383,92 3548,127 3623,104 3804,141 3840,147 3840, 161"/>
    </g>
    <g stroke="none" fill="#c3b3bd">
        <!-- shadow -->
        <polygon points="179,128.5 200,143 165,180 182,154"/>
        <polygon points="267,79 316,106 334,95 334,129 363,140 403,52.5 451, 77.5 309,205 324,132 201,202 237,154"/>
        <polygon points='493,45 634,140 600,160 703,196 688,108 786,161 676,212 550,237'/>
        <polygon points="1363,118.5 1408,146 1363,168"/>
        <polygon points="1528,64 1578,95 1465,166 1505,128"/>
        <polygon points="1716,1 1820,131 1832,108 1819,62 1935,137 1964,151 1967,112 2089,158 2112,177 2060,189 2019,181 1953,181 1886,202 1868,216 1903,243 1860,203 1779,197 1738,158"/>
        <polygon points="3203,131 3244,137 3200,160"/>
        <polygon points="3294,107 3333,112 3270,148"/>
        <polygon points="3383,92 3601,137 3484,165"/>
    </g>
</svg>